<svg width="24" height="20" viewBox="0 0 24 20" fill="none" xmlns="http://www.w3.org/2000/svg">
    <path d="M14.5 19.5002C14.372 19.5002 14.244 19.4512 14.146 19.3542C13.951 19.1592 13.951 18.8422 14.146 18.6472L22.793 10.0002L14.147 1.35423C13.952 1.15923 13.952 0.842227 14.147 0.647227C14.342 0.452227 14.659 0.452227 14.854 0.647227L23.854 9.64723C24.049 9.84223 24.049 10.1592 23.854 10.3542L14.854 19.3542C14.756 19.4512 14.628 19.5002 14.5 19.5002Z" fill="#2F70FE"/>
    <path d="M23.5 10.5H0.5C0.224 10.5 0 10.276 0 10C0 9.724 0.224 9.5 0.5 9.5H23.5C23.776 9.5 24 9.724 24 10C24 10.276 23.776 10.5 23.5 10.5Z" fill="#2F70FE"/>
</svg>
