<svg width="47" height="47" viewBox="0 0 47 47" fill="none" xmlns="http://www.w3.org/2000/svg">
    <path d="M20.5 16.5C20.5 18.7 18.7 20.5 16.5 20.5H4.5C2.3 20.5 0.5 18.7 0.5 16.5V4.5C0.5 2.3 2.3 0.5 4.5 0.5H16.5C18.7 0.5 20.5 2.3 20.5 4.5V16.5Z" stroke="black" stroke-miterlimit="10" stroke-linecap="round" stroke-linejoin="round"/>
    <path d="M0.5 6.5H20.5" stroke="black" stroke-miterlimit="10" stroke-linecap="round" stroke-linejoin="round"/>
    <path d="M26.5 16.5C26.5 18.7 28.3 20.5 30.5 20.5H42.5C44.7 20.5 46.5 18.7 46.5 16.5V4.5C46.5 2.3 44.7 0.5 42.5 0.5H30.5C28.3 0.5 26.5 2.3 26.5 4.5V16.5Z" stroke="black" stroke-miterlimit="10" stroke-linecap="round" stroke-linejoin="round"/>
    <path d="M46.5 6.5H26.5" stroke="black" stroke-miterlimit="10" stroke-linecap="round" stroke-linejoin="round"/>
    <path d="M20.5 42.5C20.5 44.7 18.7 46.5 16.5 46.5H4.5C2.3 46.5 0.5 44.7 0.5 42.5V30.5C0.5 28.3 2.3 26.5 4.5 26.5H16.5C18.7 26.5 20.5 28.3 20.5 30.5V42.5Z" stroke="black" stroke-miterlimit="10" stroke-linecap="round" stroke-linejoin="round"/>
    <path d="M0.5 32.5H20.5" stroke="black" stroke-miterlimit="10" stroke-linecap="round" stroke-linejoin="round"/>
    <path d="M26.5 42.5C26.5 44.7 28.3 46.5 30.5 46.5H42.5C44.7 46.5 46.5 44.7 46.5 42.5V30.5C46.5 28.3 44.7 26.5 42.5 26.5H30.5C28.3 26.5 26.5 28.3 26.5 30.5V42.5Z" stroke="black" stroke-miterlimit="10" stroke-linecap="round" stroke-linejoin="round"/>
    <path d="M46.5 32.5H26.5" stroke="black" stroke-miterlimit="10" stroke-linecap="round" stroke-linejoin="round"/>
</svg>
